<svg xmlns="http://www.w3.org/2000/svg" xmlns:xlink="http://www.w3.org/1999/xlink" id="Layer_1" x="0px" y="0px" viewBox="0 0 15.2 16" style="enable-background:new 0 0 15.2 16;" xml:space="preserve"><style type="text/css">	.st0{fill:#FFFFFF;}	.st1{fill:#FFFFFF;stroke:#FFFFFF;stroke-width:1.8;stroke-linecap:round;}</style><path class="st0" d="M1,4V3.1H0.1V4H1z M1,15H0.1v0.9H1V15z M12,15v0.9h0.9V15H12z M12.9,11.2c0-0.5-0.4-0.9-0.9-0.9 s-0.9,0.4-0.9,0.9H12.9z M4.5,4.9C5,4.9,5.4,4.5,5.4,4c0-0.5-0.4-0.9-0.9-0.9V4.9z M0.1,4v11h1.8V4H0.1z M1,15.9h11v-1.8H1V15.9z  M12.9,15v-3.8h-1.8V15H12.9z M1,4.9h3.5V3.1H1V4.9z"></path><path class="st1" d="M8.3,1l5.9,0l0,5.6"></path><path class="st1" d="M6.4,8.9l7-7"></path></svg>