<svg xmlns="http://www.w3.org/2000/svg" width="12" height="14" viewBox="0 0 12 14" fill="none"><path d="M5.41136 13.7632L0.247849 8.84869C0.082616 8.69079 1.01283e-07 8.49342 9.89294e-08 8.29605C9.65758e-08 8.09868 0.0826159 7.90132 0.247849 7.74342C0.578313 7.42763 1.09467 7.42763 1.42513 7.74342L5.16351 11.3158L5.16351 0.789474C5.16351 0.355263 5.53528 7.7091e-08 5.98967 7.16724e-08C6.44406 6.62539e-08 6.81583 0.355263 6.81583 0.789474L6.81583 11.3158L10.5749 7.72368C10.9053 7.40789 11.4217 7.40789 11.7522 7.72368C12.0826 8.03947 12.0826 8.5329 11.7522 8.84869L6.58864 13.7632C6.25818 14.0789 5.72117 14.0789 5.41136 13.7632Z" fill="#131D39"></path></svg>