<svg xmlns="http://www.w3.org/2000/svg" xmlns:xlink="http://www.w3.org/1999/xlink" id="Layer_1" x="0px" y="0px" viewBox="0 0 16 16.4" style="enable-background:new 0 0 16 16.4;" xml:space="preserve"><style type="text/css">	.st0{fill:#131D39;}</style><g>	<path class="st0" d="M15.7,8.6L8.3,16c-0.2,0.2-0.4,0.2-0.6,0L0.3,8.6C0.2,8.4,0.2,8.2,0.3,8L1,7.3c0.2-0.2,0.4-0.2,0.6,0l5.5,5.5  v-12c0-0.2,0.2-0.4,0.4-0.4h1c0.2,0,0.4,0.2,0.4,0.4v12l5.5-5.5c0.2-0.2,0.4-0.2,0.6,0L15.7,8C15.8,8.2,15.8,8.4,15.7,8.6z"></path></g></svg>