<?xml version="1.0" encoding="utf-8"?>
<!-- Generator: Adobe Illustrator 26.2.1, SVG Export Plug-In . SVG Version: 6.00 Build 0)  -->
<svg version="1.1" id="Layer_1" xmlns="http://www.w3.org/2000/svg" xmlns:xlink="http://www.w3.org/1999/xlink" x="0px" y="0px"
	 viewBox="0 0 48 48" style="enable-background:new 0 0 48 48;" xml:space="preserve">
<style type="text/css">
	.st0{fill:none;stroke:#131D39;}
	.st1{fill:#131D39;}
</style>

<rect x="0.5" y="0.6" fill="#FFFFFF" stroke="#131D39" stroke-miterlimit="10" width="47" height="47"/>
<path fill="#131D39" d="M35.4,16.3c-0.5-0.5-1.3-0.5-1.8,0l0.3,0.4l0,0l-0.3-0.4l0,0L21,29l-6.6-6.6l0,0l0,0L14,22.8l0,0l0.3-0.4
	c-0.5-0.5-1.3-0.5-1.8,0c-0.5,0.5-0.5,1.3,0,1.8l0,0l7.5,7.5l0,0l0,0c0.3,0.2,0.6,0.4,0.9,0.4c0.3,0,0.6-0.1,0.9-0.3l0,0l0,0
	l-0.4-0.4l0,0l0.4,0.4l13.6-13.6l0,0C36,17.6,36,16.8,35.4,16.3z M35.1,17.8L35.1,17.8L35.1,17.8L35.1,17.8z M20,31.7l0.4-0.4l0,0
	L20,31.7z"/>
</svg>
